<mxfile host="65bd71144e" pages="3">
    <diagram name="push-reset" id="lw68m7RK7UWLypsBFMts">
        <mxGraphModel dx="875" dy="1474" grid="1" gridSize="10" guides="1" tooltips="1" connect="1" arrows="1" fold="1" page="0" pageScale="1" pageWidth="850" pageHeight="1100" background="#121212" math="0" shadow="0">
            <root>
                <mxCell id="0"/>
                <mxCell id="1" parent="0"/>
                <mxCell id="QGqMVb0aB9mrGr7BYS81-1" style="edgeStyle=orthogonalEdgeStyle;rounded=0;orthogonalLoop=1;jettySize=auto;html=1;strokeWidth=1;fontSize=16;endArrow=classic;endFill=1;" parent="1" source="QGqMVb0aB9mrGr7BYS81-3" target="QGqMVb0aB9mrGr7BYS81-16" edge="1">
                    <mxGeometry relative="1" as="geometry"/>
                </mxCell>
                <mxCell id="QGqMVb0aB9mrGr7BYS81-2" value="switch -c &quot;backup-$(date +%s)&quot;" style="edgeLabel;html=1;align=center;verticalAlign=middle;resizable=0;points=[];fontSize=16;" parent="QGqMVb0aB9mrGr7BYS81-1" vertex="1" connectable="0">
                    <mxGeometry x="0.0111" relative="1" as="geometry">
                        <mxPoint as="offset"/>
                    </mxGeometry>
                </mxCell>
                <mxCell id="QGqMVb0aB9mrGr7BYS81-3" value="Working on Local Machine" style="swimlane;whiteSpace=wrap;html=1;fontSize=16;startSize=20;" parent="1" vertex="1">
                    <mxGeometry x="23" y="-1070" width="277" height="210" as="geometry"/>
                </mxCell>
                <mxCell id="QGqMVb0aB9mrGr7BYS81-4" value="A" style="rounded=0;whiteSpace=wrap;html=1;" parent="QGqMVb0aB9mrGr7BYS81-3" vertex="1">
                    <mxGeometry x="20" y="150" width="40" height="40" as="geometry"/>
                </mxCell>
                <mxCell id="QGqMVb0aB9mrGr7BYS81-5" value="B" style="rounded=0;whiteSpace=wrap;html=1;" parent="QGqMVb0aB9mrGr7BYS81-3" vertex="1">
                    <mxGeometry x="80" y="150" width="40" height="40" as="geometry"/>
                </mxCell>
                <mxCell id="QGqMVb0aB9mrGr7BYS81-6" style="edgeStyle=orthogonalEdgeStyle;rounded=0;orthogonalLoop=1;jettySize=auto;html=1;strokeWidth=1;fontSize=16;endArrow=classic;endFill=1;" parent="QGqMVb0aB9mrGr7BYS81-3" source="QGqMVb0aB9mrGr7BYS81-4" target="QGqMVb0aB9mrGr7BYS81-5" edge="1">
                    <mxGeometry relative="1" as="geometry"/>
                </mxCell>
                <mxCell id="QGqMVb0aB9mrGr7BYS81-8" value="C" style="rounded=0;whiteSpace=wrap;html=1;" parent="QGqMVb0aB9mrGr7BYS81-3" vertex="1">
                    <mxGeometry x="140" y="150" width="40" height="40" as="geometry"/>
                </mxCell>
                <mxCell id="QGqMVb0aB9mrGr7BYS81-9" style="edgeStyle=orthogonalEdgeStyle;rounded=0;orthogonalLoop=1;jettySize=auto;html=1;strokeWidth=1;fontSize=16;endArrow=classic;endFill=1;" parent="QGqMVb0aB9mrGr7BYS81-3" source="QGqMVb0aB9mrGr7BYS81-5" target="QGqMVb0aB9mrGr7BYS81-8" edge="1">
                    <mxGeometry relative="1" as="geometry"/>
                </mxCell>
                <mxCell id="QGqMVb0aB9mrGr7BYS81-10" value="issue" style="text;html=1;align=center;verticalAlign=middle;resizable=0;points=[];autosize=1;strokeColor=none;fillColor=none;fontSize=16;" parent="QGqMVb0aB9mrGr7BYS81-3" vertex="1">
                    <mxGeometry x="130" y="95" width="60" height="30" as="geometry"/>
                </mxCell>
                <mxCell id="QGqMVb0aB9mrGr7BYS81-11" style="edgeStyle=orthogonalEdgeStyle;rounded=0;orthogonalLoop=1;jettySize=auto;html=1;strokeWidth=1;fontSize=16;endArrow=classic;endFill=1;dashed=1;dashPattern=1 4;" parent="QGqMVb0aB9mrGr7BYS81-3" source="QGqMVb0aB9mrGr7BYS81-10" target="QGqMVb0aB9mrGr7BYS81-8" edge="1">
                    <mxGeometry relative="1" as="geometry">
                        <Array as="points"/>
                    </mxGeometry>
                </mxCell>
                <mxCell id="QGqMVb0aB9mrGr7BYS81-12" value="D" style="rounded=0;whiteSpace=wrap;html=1;fillColor=#a20025;fontColor=#ffffff;strokeColor=#6F0000;" parent="QGqMVb0aB9mrGr7BYS81-3" vertex="1">
                    <mxGeometry x="217" y="150" width="40" height="40" as="geometry"/>
                </mxCell>
                <mxCell id="QGqMVb0aB9mrGr7BYS81-13" value="HEAD" style="text;html=1;align=center;verticalAlign=middle;resizable=0;points=[];autosize=1;strokeColor=none;fillColor=none;fontSize=16;" parent="QGqMVb0aB9mrGr7BYS81-3" vertex="1">
                    <mxGeometry x="125" y="40" width="70" height="30" as="geometry"/>
                </mxCell>
                <mxCell id="QGqMVb0aB9mrGr7BYS81-14" style="edgeStyle=orthogonalEdgeStyle;rounded=0;orthogonalLoop=1;jettySize=auto;html=1;dashed=1;strokeWidth=1;fontSize=16;endArrow=classic;endFill=1;dashPattern=1 4;" parent="QGqMVb0aB9mrGr7BYS81-3" source="QGqMVb0aB9mrGr7BYS81-13" target="QGqMVb0aB9mrGr7BYS81-10" edge="1">
                    <mxGeometry relative="1" as="geometry"/>
                </mxCell>
                <mxCell id="QGqMVb0aB9mrGr7BYS81-48" style="edgeStyle=orthogonalEdgeStyle;rounded=0;orthogonalLoop=1;jettySize=auto;html=1;" parent="1" source="QGqMVb0aB9mrGr7BYS81-116" target="QGqMVb0aB9mrGr7BYS81-30" edge="1">
                    <mxGeometry relative="1" as="geometry">
                        <mxPoint x="563" y="-560" as="sourcePoint"/>
                    </mxGeometry>
                </mxCell>
                <mxCell id="QGqMVb0aB9mrGr7BYS81-50" value="&lt;font style=&quot;font-size: 16px;&quot;&gt;commit -m &quot;backup-0&quot;&lt;br&gt;push backup &quot;backup-0&quot;&lt;br&gt;&lt;/font&gt;" style="edgeLabel;html=1;align=center;verticalAlign=middle;resizable=0;points=[];" parent="QGqMVb0aB9mrGr7BYS81-48" vertex="1" connectable="0">
                    <mxGeometry x="-0.0151" y="-2" relative="1" as="geometry">
                        <mxPoint as="offset"/>
                    </mxGeometry>
                </mxCell>
                <mxCell id="QGqMVb0aB9mrGr7BYS81-130" style="edgeStyle=orthogonalEdgeStyle;rounded=0;orthogonalLoop=1;jettySize=auto;html=1;entryX=0.5;entryY=0;entryDx=0;entryDy=0;fontSize=16;" parent="1" source="QGqMVb0aB9mrGr7BYS81-16" target="QGqMVb0aB9mrGr7BYS81-116" edge="1">
                    <mxGeometry relative="1" as="geometry">
                        <Array as="points">
                            <mxPoint x="688" y="-830"/>
                            <mxPoint x="688" y="-830"/>
                        </Array>
                    </mxGeometry>
                </mxCell>
                <mxCell id="QGqMVb0aB9mrGr7BYS81-131" value="add ." style="edgeLabel;html=1;align=center;verticalAlign=middle;resizable=0;points=[];fontSize=16;" parent="QGqMVb0aB9mrGr7BYS81-130" vertex="1" connectable="0">
                    <mxGeometry x="0.1306" y="2" relative="1" as="geometry">
                        <mxPoint x="-2" y="-8" as="offset"/>
                    </mxGeometry>
                </mxCell>
                <mxCell id="QGqMVb0aB9mrGr7BYS81-16" value="Create Backup Branch" style="swimlane;whiteSpace=wrap;html=1;fontSize=16;startSize=20;" parent="1" vertex="1">
                    <mxGeometry x="548" y="-1080" width="280" height="230" as="geometry"/>
                </mxCell>
                <mxCell id="QGqMVb0aB9mrGr7BYS81-17" value="backup-0" style="text;html=1;align=center;verticalAlign=middle;resizable=0;points=[];autosize=1;strokeColor=none;fillColor=none;fontSize=16;" parent="QGqMVb0aB9mrGr7BYS81-16" vertex="1">
                    <mxGeometry x="115" y="140" width="90" height="30" as="geometry"/>
                </mxCell>
                <mxCell id="QGqMVb0aB9mrGr7BYS81-18" value="A" style="rounded=0;whiteSpace=wrap;html=1;" parent="QGqMVb0aB9mrGr7BYS81-16" vertex="1">
                    <mxGeometry x="20" y="80" width="40" height="40" as="geometry"/>
                </mxCell>
                <mxCell id="QGqMVb0aB9mrGr7BYS81-19" value="B" style="rounded=0;whiteSpace=wrap;html=1;" parent="QGqMVb0aB9mrGr7BYS81-16" vertex="1">
                    <mxGeometry x="80" y="80" width="40" height="40" as="geometry"/>
                </mxCell>
                <mxCell id="QGqMVb0aB9mrGr7BYS81-20" style="edgeStyle=orthogonalEdgeStyle;rounded=0;orthogonalLoop=1;jettySize=auto;html=1;strokeWidth=1;fontSize=16;endArrow=classic;endFill=1;" parent="QGqMVb0aB9mrGr7BYS81-16" source="QGqMVb0aB9mrGr7BYS81-18" target="QGqMVb0aB9mrGr7BYS81-19" edge="1">
                    <mxGeometry relative="1" as="geometry"/>
                </mxCell>
                <mxCell id="QGqMVb0aB9mrGr7BYS81-21" value="C" style="rounded=0;whiteSpace=wrap;html=1;" parent="QGqMVb0aB9mrGr7BYS81-16" vertex="1">
                    <mxGeometry x="140" y="80" width="40" height="40" as="geometry"/>
                </mxCell>
                <mxCell id="QGqMVb0aB9mrGr7BYS81-22" style="edgeStyle=orthogonalEdgeStyle;rounded=0;orthogonalLoop=1;jettySize=auto;html=1;strokeWidth=1;fontSize=16;endArrow=classic;endFill=1;" parent="QGqMVb0aB9mrGr7BYS81-16" source="QGqMVb0aB9mrGr7BYS81-19" target="QGqMVb0aB9mrGr7BYS81-21" edge="1">
                    <mxGeometry relative="1" as="geometry"/>
                </mxCell>
                <mxCell id="QGqMVb0aB9mrGr7BYS81-23" value="issue" style="text;html=1;align=center;verticalAlign=middle;resizable=0;points=[];autosize=1;strokeColor=none;fillColor=none;fontSize=16;" parent="QGqMVb0aB9mrGr7BYS81-16" vertex="1">
                    <mxGeometry x="130" y="30" width="60" height="30" as="geometry"/>
                </mxCell>
                <mxCell id="QGqMVb0aB9mrGr7BYS81-24" style="edgeStyle=orthogonalEdgeStyle;rounded=0;orthogonalLoop=1;jettySize=auto;html=1;strokeWidth=1;fontSize=16;endArrow=classic;endFill=1;dashed=1;dashPattern=1 4;" parent="QGqMVb0aB9mrGr7BYS81-16" source="QGqMVb0aB9mrGr7BYS81-23" target="QGqMVb0aB9mrGr7BYS81-21" edge="1">
                    <mxGeometry relative="1" as="geometry">
                        <Array as="points"/>
                    </mxGeometry>
                </mxCell>
                <mxCell id="QGqMVb0aB9mrGr7BYS81-25" value="D" style="rounded=0;whiteSpace=wrap;html=1;fillColor=#a20025;fontColor=#ffffff;strokeColor=#6F0000;" parent="QGqMVb0aB9mrGr7BYS81-16" vertex="1">
                    <mxGeometry x="222" y="80" width="40" height="40" as="geometry"/>
                </mxCell>
                <mxCell id="QGqMVb0aB9mrGr7BYS81-26" style="edgeStyle=orthogonalEdgeStyle;rounded=0;orthogonalLoop=1;jettySize=auto;html=1;strokeWidth=1;fontSize=16;endArrow=classic;endFill=1;dashed=1;dashPattern=1 4;" parent="QGqMVb0aB9mrGr7BYS81-16" source="QGqMVb0aB9mrGr7BYS81-17" target="QGqMVb0aB9mrGr7BYS81-21" edge="1">
                    <mxGeometry relative="1" as="geometry"/>
                </mxCell>
                <mxCell id="QGqMVb0aB9mrGr7BYS81-27" style="edgeStyle=orthogonalEdgeStyle;rounded=0;orthogonalLoop=1;jettySize=auto;html=1;dashed=1;strokeWidth=1;fontSize=16;endArrow=classic;endFill=1;dashPattern=1 4;" parent="QGqMVb0aB9mrGr7BYS81-16" source="QGqMVb0aB9mrGr7BYS81-28" target="QGqMVb0aB9mrGr7BYS81-17" edge="1">
                    <mxGeometry relative="1" as="geometry"/>
                </mxCell>
                <mxCell id="QGqMVb0aB9mrGr7BYS81-28" value="HEAD" style="text;html=1;align=center;verticalAlign=middle;resizable=0;points=[];autosize=1;strokeColor=none;fillColor=none;fontSize=16;" parent="QGqMVb0aB9mrGr7BYS81-16" vertex="1">
                    <mxGeometry x="125" y="190" width="70" height="30" as="geometry"/>
                </mxCell>
                <mxCell id="QGqMVb0aB9mrGr7BYS81-67" value="switch --detach HEAD" style="edgeStyle=orthogonalEdgeStyle;rounded=0;orthogonalLoop=1;jettySize=auto;html=1;fontSize=16;" parent="1" source="QGqMVb0aB9mrGr7BYS81-30" target="QGqMVb0aB9mrGr7BYS81-82" edge="1">
                    <mxGeometry relative="1" as="geometry">
                        <mxPoint x="278" y="-590" as="targetPoint"/>
                    </mxGeometry>
                </mxCell>
                <mxCell id="QGqMVb0aB9mrGr7BYS81-30" value="Commit to Backup Branch" style="swimlane;whiteSpace=wrap;html=1;fontSize=16;startSize=20;" parent="1" vertex="1">
                    <mxGeometry x="23" y="-800" width="270" height="230" as="geometry"/>
                </mxCell>
                <mxCell id="QGqMVb0aB9mrGr7BYS81-31" value="backup-0" style="text;html=1;align=center;verticalAlign=middle;resizable=0;points=[];autosize=1;strokeColor=none;fillColor=none;fontSize=16;" parent="QGqMVb0aB9mrGr7BYS81-30" vertex="1">
                    <mxGeometry x="175" y="135" width="90" height="30" as="geometry"/>
                </mxCell>
                <mxCell id="QGqMVb0aB9mrGr7BYS81-32" value="A" style="rounded=0;whiteSpace=wrap;html=1;" parent="QGqMVb0aB9mrGr7BYS81-30" vertex="1">
                    <mxGeometry x="20" y="75" width="40" height="40" as="geometry"/>
                </mxCell>
                <mxCell id="QGqMVb0aB9mrGr7BYS81-33" value="B" style="rounded=0;whiteSpace=wrap;html=1;" parent="QGqMVb0aB9mrGr7BYS81-30" vertex="1">
                    <mxGeometry x="80" y="75" width="40" height="40" as="geometry"/>
                </mxCell>
                <mxCell id="QGqMVb0aB9mrGr7BYS81-34" style="edgeStyle=orthogonalEdgeStyle;rounded=0;orthogonalLoop=1;jettySize=auto;html=1;strokeWidth=1;fontSize=16;endArrow=classic;endFill=1;" parent="QGqMVb0aB9mrGr7BYS81-30" source="QGqMVb0aB9mrGr7BYS81-32" target="QGqMVb0aB9mrGr7BYS81-33" edge="1">
                    <mxGeometry relative="1" as="geometry"/>
                </mxCell>
                <mxCell id="QGqMVb0aB9mrGr7BYS81-35" value="C" style="rounded=0;whiteSpace=wrap;html=1;" parent="QGqMVb0aB9mrGr7BYS81-30" vertex="1">
                    <mxGeometry x="140" y="75" width="40" height="40" as="geometry"/>
                </mxCell>
                <mxCell id="QGqMVb0aB9mrGr7BYS81-36" style="edgeStyle=orthogonalEdgeStyle;rounded=0;orthogonalLoop=1;jettySize=auto;html=1;strokeWidth=1;fontSize=16;endArrow=classic;endFill=1;" parent="QGqMVb0aB9mrGr7BYS81-30" source="QGqMVb0aB9mrGr7BYS81-33" target="QGqMVb0aB9mrGr7BYS81-35" edge="1">
                    <mxGeometry relative="1" as="geometry"/>
                </mxCell>
                <mxCell id="QGqMVb0aB9mrGr7BYS81-37" value="issue" style="text;html=1;align=center;verticalAlign=middle;resizable=0;points=[];autosize=1;strokeColor=none;fillColor=none;fontSize=16;" parent="QGqMVb0aB9mrGr7BYS81-30" vertex="1">
                    <mxGeometry x="130" y="25" width="60" height="30" as="geometry"/>
                </mxCell>
                <mxCell id="QGqMVb0aB9mrGr7BYS81-38" style="edgeStyle=orthogonalEdgeStyle;rounded=0;orthogonalLoop=1;jettySize=auto;html=1;strokeWidth=1;fontSize=16;endArrow=classic;endFill=1;dashed=1;" parent="QGqMVb0aB9mrGr7BYS81-30" source="QGqMVb0aB9mrGr7BYS81-37" target="QGqMVb0aB9mrGr7BYS81-35" edge="1">
                    <mxGeometry relative="1" as="geometry">
                        <Array as="points"/>
                    </mxGeometry>
                </mxCell>
                <mxCell id="QGqMVb0aB9mrGr7BYS81-39" value="D" style="rounded=0;whiteSpace=wrap;html=1;" parent="QGqMVb0aB9mrGr7BYS81-30" vertex="1">
                    <mxGeometry x="200" y="75" width="40" height="40" as="geometry"/>
                </mxCell>
                <mxCell id="QGqMVb0aB9mrGr7BYS81-40" style="edgeStyle=orthogonalEdgeStyle;rounded=0;orthogonalLoop=1;jettySize=auto;html=1;strokeWidth=1;fontSize=16;endArrow=classic;endFill=1;dashed=1;dashPattern=1 4;" parent="QGqMVb0aB9mrGr7BYS81-30" target="QGqMVb0aB9mrGr7BYS81-39" edge="1">
                    <mxGeometry relative="1" as="geometry">
                        <mxPoint x="219.9655172413793" y="134.9999999999999" as="sourcePoint"/>
                    </mxGeometry>
                </mxCell>
                <mxCell id="QGqMVb0aB9mrGr7BYS81-43" style="edgeStyle=orthogonalEdgeStyle;rounded=0;orthogonalLoop=1;jettySize=auto;html=1;strokeWidth=1;fontSize=16;endArrow=classic;endFill=1;" parent="QGqMVb0aB9mrGr7BYS81-30" source="QGqMVb0aB9mrGr7BYS81-35" target="QGqMVb0aB9mrGr7BYS81-39" edge="1">
                    <mxGeometry relative="1" as="geometry"/>
                </mxCell>
                <mxCell id="QGqMVb0aB9mrGr7BYS81-42" value="HEAD" style="text;html=1;align=center;verticalAlign=middle;resizable=0;points=[];autosize=1;strokeColor=none;fillColor=none;fontSize=16;" parent="QGqMVb0aB9mrGr7BYS81-30" vertex="1">
                    <mxGeometry x="185" y="190" width="70" height="30" as="geometry"/>
                </mxCell>
                <mxCell id="QGqMVb0aB9mrGr7BYS81-41" style="edgeStyle=orthogonalEdgeStyle;rounded=0;orthogonalLoop=1;jettySize=auto;html=1;dashed=1;strokeWidth=1;fontSize=16;endArrow=classic;endFill=1;dashPattern=1 4;" parent="QGqMVb0aB9mrGr7BYS81-30" source="QGqMVb0aB9mrGr7BYS81-42" target="QGqMVb0aB9mrGr7BYS81-31" edge="1">
                    <mxGeometry relative="1" as="geometry"/>
                </mxCell>
                <mxCell id="iXHuMSHb4gdl7WLPt42X-2" style="edgeStyle=orthogonalEdgeStyle;rounded=0;orthogonalLoop=1;jettySize=auto;html=1;dashed=1;dashPattern=1 4;" parent="QGqMVb0aB9mrGr7BYS81-30" source="iXHuMSHb4gdl7WLPt42X-1" target="QGqMVb0aB9mrGr7BYS81-39" edge="1">
                    <mxGeometry relative="1" as="geometry">
                        <Array as="points">
                            <mxPoint x="100" y="130"/>
                            <mxPoint x="220" y="130"/>
                        </Array>
                    </mxGeometry>
                </mxCell>
                <mxCell id="iXHuMSHb4gdl7WLPt42X-1" value="backup/backup-0" style="text;html=1;align=center;verticalAlign=middle;resizable=0;points=[];autosize=1;strokeColor=none;fillColor=none;fontSize=16;spacing=0;spacingRight=-6;" parent="QGqMVb0aB9mrGr7BYS81-30" vertex="1">
                    <mxGeometry x="35" y="135" width="130" height="30" as="geometry"/>
                </mxCell>
                <mxCell id="QGqMVb0aB9mrGr7BYS81-112" style="edgeStyle=orthogonalEdgeStyle;rounded=0;orthogonalLoop=1;jettySize=auto;html=1;fontSize=16;" parent="1" source="QGqMVb0aB9mrGr7BYS81-68" target="QGqMVb0aB9mrGr7BYS81-96" edge="1">
                    <mxGeometry relative="1" as="geometry"/>
                </mxCell>
                <mxCell id="QGqMVb0aB9mrGr7BYS81-114" value="switch&amp;nbsp;issue" style="edgeLabel;html=1;align=center;verticalAlign=middle;resizable=0;points=[];fontSize=16;" parent="QGqMVb0aB9mrGr7BYS81-112" vertex="1" connectable="0">
                    <mxGeometry x="-0.0182" y="-2" relative="1" as="geometry">
                        <mxPoint as="offset"/>
                    </mxGeometry>
                </mxCell>
                <mxCell id="QGqMVb0aB9mrGr7BYS81-68" value="Reset to HEAD~1" style="swimlane;whiteSpace=wrap;html=1;fontSize=16;startSize=20;" parent="1" vertex="1">
                    <mxGeometry x="550" y="-510" width="340" height="200" as="geometry"/>
                </mxCell>
                <mxCell id="n4rh7x7ArmL0uxMuZfid-1" style="edgeStyle=orthogonalEdgeStyle;rounded=0;orthogonalLoop=1;jettySize=auto;html=1;dashed=1;dashPattern=1 4;" parent="QGqMVb0aB9mrGr7BYS81-68" source="QGqMVb0aB9mrGr7BYS81-69" target="QGqMVb0aB9mrGr7BYS81-77" edge="1">
                    <mxGeometry relative="1" as="geometry">
                        <Array as="points">
                            <mxPoint x="220" y="160"/>
                            <mxPoint x="220" y="160"/>
                        </Array>
                    </mxGeometry>
                </mxCell>
                <mxCell id="QGqMVb0aB9mrGr7BYS81-69" value="backup-0" style="text;html=1;align=center;verticalAlign=middle;resizable=0;points=[];autosize=1;strokeColor=none;fillColor=none;fontSize=16;spacing=-3;" parent="QGqMVb0aB9mrGr7BYS81-68" vertex="1">
                    <mxGeometry x="180" y="165" width="80" height="20" as="geometry"/>
                </mxCell>
                <mxCell id="QGqMVb0aB9mrGr7BYS81-70" value="A" style="rounded=0;whiteSpace=wrap;html=1;" parent="QGqMVb0aB9mrGr7BYS81-68" vertex="1">
                    <mxGeometry x="20" y="80" width="40" height="40" as="geometry"/>
                </mxCell>
                <mxCell id="QGqMVb0aB9mrGr7BYS81-71" value="B" style="rounded=0;whiteSpace=wrap;html=1;" parent="QGqMVb0aB9mrGr7BYS81-68" vertex="1">
                    <mxGeometry x="80" y="80" width="40" height="40" as="geometry"/>
                </mxCell>
                <mxCell id="QGqMVb0aB9mrGr7BYS81-72" style="edgeStyle=orthogonalEdgeStyle;rounded=0;orthogonalLoop=1;jettySize=auto;html=1;strokeWidth=1;fontSize=16;endArrow=classic;endFill=1;" parent="QGqMVb0aB9mrGr7BYS81-68" source="QGqMVb0aB9mrGr7BYS81-70" target="QGqMVb0aB9mrGr7BYS81-71" edge="1">
                    <mxGeometry relative="1" as="geometry"/>
                </mxCell>
                <mxCell id="QGqMVb0aB9mrGr7BYS81-134" value="" style="edgeStyle=orthogonalEdgeStyle;rounded=0;orthogonalLoop=1;jettySize=auto;html=1;fontSize=16;" parent="QGqMVb0aB9mrGr7BYS81-68" source="QGqMVb0aB9mrGr7BYS81-73" target="QGqMVb0aB9mrGr7BYS81-77" edge="1">
                    <mxGeometry relative="1" as="geometry"/>
                </mxCell>
                <mxCell id="QGqMVb0aB9mrGr7BYS81-73" value="C" style="rounded=0;whiteSpace=wrap;html=1;" parent="QGqMVb0aB9mrGr7BYS81-68" vertex="1">
                    <mxGeometry x="140" y="80" width="40" height="40" as="geometry"/>
                </mxCell>
                <mxCell id="QGqMVb0aB9mrGr7BYS81-74" style="edgeStyle=orthogonalEdgeStyle;rounded=0;orthogonalLoop=1;jettySize=auto;html=1;strokeWidth=1;fontSize=16;endArrow=classic;endFill=1;" parent="QGqMVb0aB9mrGr7BYS81-68" source="QGqMVb0aB9mrGr7BYS81-71" target="QGqMVb0aB9mrGr7BYS81-73" edge="1">
                    <mxGeometry relative="1" as="geometry"/>
                </mxCell>
                <mxCell id="QGqMVb0aB9mrGr7BYS81-75" value="issue" style="text;html=1;align=center;verticalAlign=middle;resizable=0;points=[];autosize=1;strokeColor=none;fillColor=none;fontSize=16;" parent="QGqMVb0aB9mrGr7BYS81-68" vertex="1">
                    <mxGeometry x="130" y="30" width="60" height="30" as="geometry"/>
                </mxCell>
                <mxCell id="QGqMVb0aB9mrGr7BYS81-76" style="edgeStyle=orthogonalEdgeStyle;rounded=0;orthogonalLoop=1;jettySize=auto;html=1;strokeWidth=1;fontSize=16;endArrow=classic;endFill=1;dashed=1;dashPattern=1 4;" parent="QGqMVb0aB9mrGr7BYS81-68" source="QGqMVb0aB9mrGr7BYS81-75" target="QGqMVb0aB9mrGr7BYS81-73" edge="1">
                    <mxGeometry relative="1" as="geometry">
                        <Array as="points"/>
                    </mxGeometry>
                </mxCell>
                <mxCell id="QGqMVb0aB9mrGr7BYS81-77" value="D" style="rounded=0;whiteSpace=wrap;html=1;" parent="QGqMVb0aB9mrGr7BYS81-68" vertex="1">
                    <mxGeometry x="200" y="80" width="40" height="40" as="geometry"/>
                </mxCell>
                <mxCell id="QGqMVb0aB9mrGr7BYS81-78" style="edgeStyle=orthogonalEdgeStyle;rounded=0;orthogonalLoop=1;jettySize=auto;html=1;strokeWidth=1;fontSize=16;endArrow=classic;endFill=1;dashed=1;dashPattern=1 4;" parent="QGqMVb0aB9mrGr7BYS81-68" target="QGqMVb0aB9mrGr7BYS81-77" edge="1">
                    <mxGeometry relative="1" as="geometry">
                        <mxPoint x="219.9655172413793" y="139.9999999999999" as="sourcePoint"/>
                    </mxGeometry>
                </mxCell>
                <mxCell id="QGqMVb0aB9mrGr7BYS81-79" style="edgeStyle=orthogonalEdgeStyle;rounded=0;orthogonalLoop=1;jettySize=auto;html=1;dashed=1;strokeWidth=1;fontSize=16;endArrow=classic;endFill=1;dashPattern=1 4;" parent="QGqMVb0aB9mrGr7BYS81-68" source="QGqMVb0aB9mrGr7BYS81-80" target="QGqMVb0aB9mrGr7BYS81-73" edge="1">
                    <mxGeometry relative="1" as="geometry">
                        <Array as="points">
                            <mxPoint x="230" y="70"/>
                            <mxPoint x="160" y="70"/>
                        </Array>
                    </mxGeometry>
                </mxCell>
                <mxCell id="QGqMVb0aB9mrGr7BYS81-80" value="HEAD" style="text;html=1;align=center;verticalAlign=middle;resizable=0;points=[];autosize=1;strokeColor=none;fillColor=none;fontSize=16;spacing=-6;" parent="QGqMVb0aB9mrGr7BYS81-68" vertex="1">
                    <mxGeometry x="205" y="35" width="50" height="20" as="geometry"/>
                </mxCell>
                <mxCell id="QGqMVb0aB9mrGr7BYS81-81" style="edgeStyle=orthogonalEdgeStyle;rounded=0;orthogonalLoop=1;jettySize=auto;html=1;strokeWidth=1;fontSize=16;endArrow=classic;endFill=1;" parent="QGqMVb0aB9mrGr7BYS81-68" source="QGqMVb0aB9mrGr7BYS81-73" target="QGqMVb0aB9mrGr7BYS81-77" edge="1">
                    <mxGeometry relative="1" as="geometry"/>
                </mxCell>
                <mxCell id="cuskplKNgl8y7sjFwJh7-1" value="D" style="rounded=0;whiteSpace=wrap;html=1;fillColor=#008a00;fontColor=#ffffff;strokeColor=#005700;" parent="QGqMVb0aB9mrGr7BYS81-68" vertex="1">
                    <mxGeometry x="280" y="80" width="40" height="40" as="geometry"/>
                </mxCell>
                <mxCell id="iXHuMSHb4gdl7WLPt42X-6" style="edgeStyle=orthogonalEdgeStyle;rounded=0;orthogonalLoop=1;jettySize=auto;html=1;dashed=1;dashPattern=1 4;exitX=0.708;exitY=-0.033;exitDx=0;exitDy=0;exitPerimeter=0;" parent="QGqMVb0aB9mrGr7BYS81-68" source="iXHuMSHb4gdl7WLPt42X-5" target="QGqMVb0aB9mrGr7BYS81-77" edge="1">
                    <mxGeometry relative="1" as="geometry"/>
                </mxCell>
                <mxCell id="iXHuMSHb4gdl7WLPt42X-5" value="backup/backup-0" style="text;html=1;align=center;verticalAlign=middle;resizable=0;points=[];autosize=1;strokeColor=none;fillColor=none;fontSize=16;spacing=0;spacingRight=-6;" parent="QGqMVb0aB9mrGr7BYS81-68" vertex="1">
                    <mxGeometry x="45" y="160" width="130" height="30" as="geometry"/>
                </mxCell>
                <mxCell id="QGqMVb0aB9mrGr7BYS81-110" style="edgeStyle=orthogonalEdgeStyle;rounded=0;orthogonalLoop=1;jettySize=auto;html=1;fontSize=16;" parent="1" source="QGqMVb0aB9mrGr7BYS81-82" target="QGqMVb0aB9mrGr7BYS81-68" edge="1">
                    <mxGeometry relative="1" as="geometry"/>
                </mxCell>
                <mxCell id="QGqMVb0aB9mrGr7BYS81-111" value="reset --soft HEAD~1" style="edgeLabel;html=1;align=center;verticalAlign=middle;resizable=0;points=[];fontSize=16;" parent="QGqMVb0aB9mrGr7BYS81-110" vertex="1" connectable="0">
                    <mxGeometry x="-0.0722" relative="1" as="geometry">
                        <mxPoint as="offset"/>
                    </mxGeometry>
                </mxCell>
                <mxCell id="QGqMVb0aB9mrGr7BYS81-155" style="edgeStyle=orthogonalEdgeStyle;curved=1;rounded=0;orthogonalLoop=1;jettySize=auto;html=1;dashed=1;dashPattern=1 4;fontSize=18;endArrow=classic;endFill=1;exitX=0.5;exitY=1;exitDx=0;exitDy=0;" parent="1" source="QGqMVb0aB9mrGr7BYS81-116" target="QGqMVb0aB9mrGr7BYS81-137" edge="1">
                    <mxGeometry relative="1" as="geometry">
                        <Array as="points">
                            <mxPoint x="688" y="-420"/>
                            <mxPoint x="158" y="-420"/>
                        </Array>
                    </mxGeometry>
                </mxCell>
                <mxCell id="QGqMVb0aB9mrGr7BYS81-82" value="Detach Head from Branch" style="swimlane;whiteSpace=wrap;html=1;fontSize=16;startSize=20;" parent="1" vertex="1">
                    <mxGeometry x="23" y="-500" width="270" height="175" as="geometry"/>
                </mxCell>
                <mxCell id="QGqMVb0aB9mrGr7BYS81-83" value="backup-0" style="text;html=1;align=center;verticalAlign=middle;resizable=0;points=[];autosize=1;strokeColor=none;fillColor=none;fontSize=16;" parent="QGqMVb0aB9mrGr7BYS81-82" vertex="1">
                    <mxGeometry x="175" y="135" width="90" height="30" as="geometry"/>
                </mxCell>
                <mxCell id="QGqMVb0aB9mrGr7BYS81-84" value="A" style="rounded=0;whiteSpace=wrap;html=1;" parent="QGqMVb0aB9mrGr7BYS81-82" vertex="1">
                    <mxGeometry x="20" y="75" width="40" height="40" as="geometry"/>
                </mxCell>
                <mxCell id="QGqMVb0aB9mrGr7BYS81-85" value="B" style="rounded=0;whiteSpace=wrap;html=1;" parent="QGqMVb0aB9mrGr7BYS81-82" vertex="1">
                    <mxGeometry x="80" y="75" width="40" height="40" as="geometry"/>
                </mxCell>
                <mxCell id="QGqMVb0aB9mrGr7BYS81-86" style="edgeStyle=orthogonalEdgeStyle;rounded=0;orthogonalLoop=1;jettySize=auto;html=1;strokeWidth=1;fontSize=16;endArrow=classic;endFill=1;" parent="QGqMVb0aB9mrGr7BYS81-82" source="QGqMVb0aB9mrGr7BYS81-84" target="QGqMVb0aB9mrGr7BYS81-85" edge="1">
                    <mxGeometry relative="1" as="geometry"/>
                </mxCell>
                <mxCell id="QGqMVb0aB9mrGr7BYS81-87" value="C" style="rounded=0;whiteSpace=wrap;html=1;" parent="QGqMVb0aB9mrGr7BYS81-82" vertex="1">
                    <mxGeometry x="140" y="75" width="40" height="40" as="geometry"/>
                </mxCell>
                <mxCell id="QGqMVb0aB9mrGr7BYS81-88" style="edgeStyle=orthogonalEdgeStyle;rounded=0;orthogonalLoop=1;jettySize=auto;html=1;strokeWidth=1;fontSize=16;endArrow=classic;endFill=1;" parent="QGqMVb0aB9mrGr7BYS81-82" source="QGqMVb0aB9mrGr7BYS81-85" target="QGqMVb0aB9mrGr7BYS81-87" edge="1">
                    <mxGeometry relative="1" as="geometry"/>
                </mxCell>
                <mxCell id="QGqMVb0aB9mrGr7BYS81-89" value="issue" style="text;html=1;align=center;verticalAlign=middle;resizable=0;points=[];autosize=1;strokeColor=none;fillColor=none;fontSize=16;" parent="QGqMVb0aB9mrGr7BYS81-82" vertex="1">
                    <mxGeometry x="130" y="25" width="60" height="30" as="geometry"/>
                </mxCell>
                <mxCell id="QGqMVb0aB9mrGr7BYS81-90" style="edgeStyle=orthogonalEdgeStyle;rounded=0;orthogonalLoop=1;jettySize=auto;html=1;strokeWidth=1;fontSize=16;endArrow=classic;endFill=1;dashed=1;dashPattern=1 4;" parent="QGqMVb0aB9mrGr7BYS81-82" source="QGqMVb0aB9mrGr7BYS81-89" target="QGqMVb0aB9mrGr7BYS81-87" edge="1">
                    <mxGeometry relative="1" as="geometry">
                        <Array as="points"/>
                    </mxGeometry>
                </mxCell>
                <mxCell id="QGqMVb0aB9mrGr7BYS81-91" value="D" style="rounded=0;whiteSpace=wrap;html=1;" parent="QGqMVb0aB9mrGr7BYS81-82" vertex="1">
                    <mxGeometry x="200" y="75" width="40" height="40" as="geometry"/>
                </mxCell>
                <mxCell id="QGqMVb0aB9mrGr7BYS81-92" style="edgeStyle=orthogonalEdgeStyle;rounded=0;orthogonalLoop=1;jettySize=auto;html=1;strokeWidth=1;fontSize=16;endArrow=classic;endFill=1;dashed=1;dashPattern=1 4;" parent="QGqMVb0aB9mrGr7BYS81-82" target="QGqMVb0aB9mrGr7BYS81-91" edge="1">
                    <mxGeometry relative="1" as="geometry">
                        <mxPoint x="219.9655172413793" y="134.9999999999999" as="sourcePoint"/>
                    </mxGeometry>
                </mxCell>
                <mxCell id="QGqMVb0aB9mrGr7BYS81-93" style="edgeStyle=orthogonalEdgeStyle;rounded=0;orthogonalLoop=1;jettySize=auto;html=1;strokeWidth=1;fontSize=16;endArrow=classic;endFill=1;" parent="QGqMVb0aB9mrGr7BYS81-82" source="QGqMVb0aB9mrGr7BYS81-87" target="QGqMVb0aB9mrGr7BYS81-91" edge="1">
                    <mxGeometry relative="1" as="geometry"/>
                </mxCell>
                <mxCell id="QGqMVb0aB9mrGr7BYS81-95" style="edgeStyle=orthogonalEdgeStyle;rounded=0;orthogonalLoop=1;jettySize=auto;html=1;fontSize=16;dashed=1;dashPattern=1 4;" parent="QGqMVb0aB9mrGr7BYS81-82" source="QGqMVb0aB9mrGr7BYS81-94" target="QGqMVb0aB9mrGr7BYS81-91" edge="1">
                    <mxGeometry relative="1" as="geometry"/>
                </mxCell>
                <mxCell id="QGqMVb0aB9mrGr7BYS81-94" value="HEAD" style="text;html=1;align=center;verticalAlign=middle;resizable=0;points=[];autosize=1;strokeColor=none;fillColor=none;fontSize=16;" parent="QGqMVb0aB9mrGr7BYS81-82" vertex="1">
                    <mxGeometry x="185" y="25" width="70" height="30" as="geometry"/>
                </mxCell>
                <mxCell id="iXHuMSHb4gdl7WLPt42X-4" style="edgeStyle=orthogonalEdgeStyle;rounded=0;orthogonalLoop=1;jettySize=auto;html=1;dashed=1;dashPattern=1 4;" parent="QGqMVb0aB9mrGr7BYS81-82" source="iXHuMSHb4gdl7WLPt42X-3" target="QGqMVb0aB9mrGr7BYS81-91" edge="1">
                    <mxGeometry relative="1" as="geometry">
                        <Array as="points">
                            <mxPoint x="92" y="130"/>
                            <mxPoint x="220" y="130"/>
                        </Array>
                    </mxGeometry>
                </mxCell>
                <mxCell id="iXHuMSHb4gdl7WLPt42X-3" value="backup/backup-0" style="text;html=1;align=center;verticalAlign=middle;resizable=0;points=[];autosize=1;strokeColor=none;fillColor=none;fontSize=16;spacing=0;spacingRight=-6;" parent="QGqMVb0aB9mrGr7BYS81-82" vertex="1">
                    <mxGeometry x="37" y="135" width="130" height="30" as="geometry"/>
                </mxCell>
                <mxCell id="QGqMVb0aB9mrGr7BYS81-96" value="" style="swimlane;whiteSpace=wrap;html=1;fontSize=16;startSize=20;" parent="1" vertex="1">
                    <mxGeometry x="548" y="-260" width="270" height="230" as="geometry"/>
                </mxCell>
                <mxCell id="iXHuMSHb4gdl7WLPt42X-9" value="" style="edgeStyle=orthogonalEdgeStyle;rounded=0;orthogonalLoop=1;jettySize=auto;html=1;dashed=1;dashPattern=1 4;" parent="QGqMVb0aB9mrGr7BYS81-96" source="QGqMVb0aB9mrGr7BYS81-97" target="QGqMVb0aB9mrGr7BYS81-105" edge="1">
                    <mxGeometry relative="1" as="geometry"/>
                </mxCell>
                <mxCell id="QGqMVb0aB9mrGr7BYS81-97" value="backup-0" style="text;html=1;align=center;verticalAlign=middle;resizable=0;points=[];autosize=1;strokeColor=none;fillColor=none;fontSize=16;" parent="QGqMVb0aB9mrGr7BYS81-96" vertex="1">
                    <mxGeometry x="175" y="190" width="90" height="30" as="geometry"/>
                </mxCell>
                <mxCell id="QGqMVb0aB9mrGr7BYS81-98" value="A" style="rounded=0;whiteSpace=wrap;html=1;" parent="QGqMVb0aB9mrGr7BYS81-96" vertex="1">
                    <mxGeometry x="20" y="130" width="40" height="40" as="geometry"/>
                </mxCell>
                <mxCell id="QGqMVb0aB9mrGr7BYS81-99" value="B" style="rounded=0;whiteSpace=wrap;html=1;" parent="QGqMVb0aB9mrGr7BYS81-96" vertex="1">
                    <mxGeometry x="80" y="130" width="40" height="40" as="geometry"/>
                </mxCell>
                <mxCell id="QGqMVb0aB9mrGr7BYS81-100" style="edgeStyle=orthogonalEdgeStyle;rounded=0;orthogonalLoop=1;jettySize=auto;html=1;strokeWidth=1;fontSize=16;endArrow=classic;endFill=1;" parent="QGqMVb0aB9mrGr7BYS81-96" source="QGqMVb0aB9mrGr7BYS81-98" target="QGqMVb0aB9mrGr7BYS81-99" edge="1">
                    <mxGeometry relative="1" as="geometry"/>
                </mxCell>
                <mxCell id="QGqMVb0aB9mrGr7BYS81-101" value="C" style="rounded=0;whiteSpace=wrap;html=1;" parent="QGqMVb0aB9mrGr7BYS81-96" vertex="1">
                    <mxGeometry x="140" y="130" width="40" height="40" as="geometry"/>
                </mxCell>
                <mxCell id="QGqMVb0aB9mrGr7BYS81-102" style="edgeStyle=orthogonalEdgeStyle;rounded=0;orthogonalLoop=1;jettySize=auto;html=1;strokeWidth=1;fontSize=16;endArrow=classic;endFill=1;" parent="QGqMVb0aB9mrGr7BYS81-96" source="QGqMVb0aB9mrGr7BYS81-99" target="QGqMVb0aB9mrGr7BYS81-101" edge="1">
                    <mxGeometry relative="1" as="geometry"/>
                </mxCell>
                <mxCell id="QGqMVb0aB9mrGr7BYS81-103" value="issue" style="text;html=1;align=center;verticalAlign=middle;resizable=0;points=[];autosize=1;strokeColor=none;fillColor=none;fontSize=16;" parent="QGqMVb0aB9mrGr7BYS81-96" vertex="1">
                    <mxGeometry x="130" y="80" width="60" height="30" as="geometry"/>
                </mxCell>
                <mxCell id="QGqMVb0aB9mrGr7BYS81-104" style="edgeStyle=orthogonalEdgeStyle;rounded=0;orthogonalLoop=1;jettySize=auto;html=1;strokeWidth=1;fontSize=16;endArrow=classic;endFill=1;dashed=1;dashPattern=1 4;" parent="QGqMVb0aB9mrGr7BYS81-96" source="QGqMVb0aB9mrGr7BYS81-103" target="QGqMVb0aB9mrGr7BYS81-101" edge="1">
                    <mxGeometry relative="1" as="geometry">
                        <Array as="points"/>
                    </mxGeometry>
                </mxCell>
                <mxCell id="QGqMVb0aB9mrGr7BYS81-105" value="D" style="rounded=0;whiteSpace=wrap;html=1;" parent="QGqMVb0aB9mrGr7BYS81-96" vertex="1">
                    <mxGeometry x="200" y="130" width="40" height="40" as="geometry"/>
                </mxCell>
                <mxCell id="QGqMVb0aB9mrGr7BYS81-106" style="edgeStyle=orthogonalEdgeStyle;rounded=0;orthogonalLoop=1;jettySize=auto;html=1;strokeWidth=1;fontSize=16;endArrow=classic;endFill=1;dashed=1;dashPattern=1 4;" parent="QGqMVb0aB9mrGr7BYS81-96" target="QGqMVb0aB9mrGr7BYS81-105" edge="1">
                    <mxGeometry relative="1" as="geometry">
                        <mxPoint x="219.9655172413793" y="189.9999999999999" as="sourcePoint"/>
                    </mxGeometry>
                </mxCell>
                <mxCell id="QGqMVb0aB9mrGr7BYS81-107" style="edgeStyle=orthogonalEdgeStyle;rounded=0;orthogonalLoop=1;jettySize=auto;html=1;dashed=1;strokeWidth=1;fontSize=16;endArrow=classic;endFill=1;dashPattern=1 4;" parent="QGqMVb0aB9mrGr7BYS81-96" source="QGqMVb0aB9mrGr7BYS81-108" target="QGqMVb0aB9mrGr7BYS81-103" edge="1">
                    <mxGeometry relative="1" as="geometry"/>
                </mxCell>
                <mxCell id="QGqMVb0aB9mrGr7BYS81-108" value="HEAD" style="text;html=1;align=center;verticalAlign=middle;resizable=0;points=[];autosize=1;strokeColor=none;fillColor=none;fontSize=16;" parent="QGqMVb0aB9mrGr7BYS81-96" vertex="1">
                    <mxGeometry x="125" y="30" width="70" height="30" as="geometry"/>
                </mxCell>
                <mxCell id="QGqMVb0aB9mrGr7BYS81-109" style="edgeStyle=orthogonalEdgeStyle;rounded=0;orthogonalLoop=1;jettySize=auto;html=1;strokeWidth=1;fontSize=16;endArrow=classic;endFill=1;" parent="QGqMVb0aB9mrGr7BYS81-96" source="QGqMVb0aB9mrGr7BYS81-101" target="QGqMVb0aB9mrGr7BYS81-105" edge="1">
                    <mxGeometry relative="1" as="geometry"/>
                </mxCell>
                <mxCell id="iXHuMSHb4gdl7WLPt42X-8" style="edgeStyle=orthogonalEdgeStyle;rounded=0;orthogonalLoop=1;jettySize=auto;html=1;dashed=1;dashPattern=1 4;" parent="QGqMVb0aB9mrGr7BYS81-96" source="iXHuMSHb4gdl7WLPt42X-7" target="QGqMVb0aB9mrGr7BYS81-105" edge="1">
                    <mxGeometry relative="1" as="geometry">
                        <Array as="points">
                            <mxPoint x="100" y="180"/>
                            <mxPoint x="220" y="180"/>
                        </Array>
                    </mxGeometry>
                </mxCell>
                <mxCell id="iXHuMSHb4gdl7WLPt42X-7" value="backup/backup-0" style="text;html=1;align=center;verticalAlign=middle;resizable=0;points=[];autosize=1;strokeColor=none;fillColor=none;fontSize=16;spacing=0;spacingRight=-6;" parent="QGqMVb0aB9mrGr7BYS81-96" vertex="1">
                    <mxGeometry x="35" y="190" width="130" height="30" as="geometry"/>
                </mxCell>
                <mxCell id="QGqMVb0aB9mrGr7BYS81-116" value="Create Backup Branch" style="swimlane;whiteSpace=wrap;html=1;fontSize=16;startSize=20;" parent="1" vertex="1">
                    <mxGeometry x="548" y="-800" width="280" height="230" as="geometry"/>
                </mxCell>
                <mxCell id="QGqMVb0aB9mrGr7BYS81-117" value="backup-0" style="text;html=1;align=center;verticalAlign=middle;resizable=0;points=[];autosize=1;strokeColor=none;fillColor=none;fontSize=16;" parent="QGqMVb0aB9mrGr7BYS81-116" vertex="1">
                    <mxGeometry x="115" y="140" width="90" height="30" as="geometry"/>
                </mxCell>
                <mxCell id="QGqMVb0aB9mrGr7BYS81-118" value="A" style="rounded=0;whiteSpace=wrap;html=1;" parent="QGqMVb0aB9mrGr7BYS81-116" vertex="1">
                    <mxGeometry x="20" y="80" width="40" height="40" as="geometry"/>
                </mxCell>
                <mxCell id="QGqMVb0aB9mrGr7BYS81-119" value="B" style="rounded=0;whiteSpace=wrap;html=1;" parent="QGqMVb0aB9mrGr7BYS81-116" vertex="1">
                    <mxGeometry x="80" y="80" width="40" height="40" as="geometry"/>
                </mxCell>
                <mxCell id="QGqMVb0aB9mrGr7BYS81-120" style="edgeStyle=orthogonalEdgeStyle;rounded=0;orthogonalLoop=1;jettySize=auto;html=1;strokeWidth=1;fontSize=16;endArrow=classic;endFill=1;" parent="QGqMVb0aB9mrGr7BYS81-116" source="QGqMVb0aB9mrGr7BYS81-118" target="QGqMVb0aB9mrGr7BYS81-119" edge="1">
                    <mxGeometry relative="1" as="geometry"/>
                </mxCell>
                <mxCell id="QGqMVb0aB9mrGr7BYS81-121" value="C" style="rounded=0;whiteSpace=wrap;html=1;" parent="QGqMVb0aB9mrGr7BYS81-116" vertex="1">
                    <mxGeometry x="140" y="80" width="40" height="40" as="geometry"/>
                </mxCell>
                <mxCell id="QGqMVb0aB9mrGr7BYS81-122" style="edgeStyle=orthogonalEdgeStyle;rounded=0;orthogonalLoop=1;jettySize=auto;html=1;strokeWidth=1;fontSize=16;endArrow=classic;endFill=1;" parent="QGqMVb0aB9mrGr7BYS81-116" source="QGqMVb0aB9mrGr7BYS81-119" target="QGqMVb0aB9mrGr7BYS81-121" edge="1">
                    <mxGeometry relative="1" as="geometry"/>
                </mxCell>
                <mxCell id="QGqMVb0aB9mrGr7BYS81-123" value="issue" style="text;html=1;align=center;verticalAlign=middle;resizable=0;points=[];autosize=1;strokeColor=none;fillColor=none;fontSize=16;" parent="QGqMVb0aB9mrGr7BYS81-116" vertex="1">
                    <mxGeometry x="130" y="30" width="60" height="30" as="geometry"/>
                </mxCell>
                <mxCell id="QGqMVb0aB9mrGr7BYS81-124" style="edgeStyle=orthogonalEdgeStyle;rounded=0;orthogonalLoop=1;jettySize=auto;html=1;strokeWidth=1;fontSize=16;endArrow=classic;endFill=1;dashed=1;dashPattern=1 4;" parent="QGqMVb0aB9mrGr7BYS81-116" source="QGqMVb0aB9mrGr7BYS81-123" target="QGqMVb0aB9mrGr7BYS81-121" edge="1">
                    <mxGeometry relative="1" as="geometry">
                        <Array as="points"/>
                    </mxGeometry>
                </mxCell>
                <mxCell id="QGqMVb0aB9mrGr7BYS81-125" value="D" style="rounded=0;whiteSpace=wrap;html=1;fillColor=#008a00;fontColor=#ffffff;strokeColor=#005700;" parent="QGqMVb0aB9mrGr7BYS81-116" vertex="1">
                    <mxGeometry x="222" y="80" width="40" height="40" as="geometry"/>
                </mxCell>
                <mxCell id="QGqMVb0aB9mrGr7BYS81-126" style="edgeStyle=orthogonalEdgeStyle;rounded=0;orthogonalLoop=1;jettySize=auto;html=1;strokeWidth=1;fontSize=16;endArrow=classic;endFill=1;dashed=1;dashPattern=1 4;" parent="QGqMVb0aB9mrGr7BYS81-116" source="QGqMVb0aB9mrGr7BYS81-117" target="QGqMVb0aB9mrGr7BYS81-121" edge="1">
                    <mxGeometry relative="1" as="geometry"/>
                </mxCell>
                <mxCell id="QGqMVb0aB9mrGr7BYS81-127" style="edgeStyle=orthogonalEdgeStyle;rounded=0;orthogonalLoop=1;jettySize=auto;html=1;dashed=1;strokeWidth=1;fontSize=16;endArrow=classic;endFill=1;dashPattern=1 4;" parent="QGqMVb0aB9mrGr7BYS81-116" source="QGqMVb0aB9mrGr7BYS81-128" target="QGqMVb0aB9mrGr7BYS81-117" edge="1">
                    <mxGeometry relative="1" as="geometry"/>
                </mxCell>
                <mxCell id="QGqMVb0aB9mrGr7BYS81-128" value="HEAD" style="text;html=1;align=center;verticalAlign=middle;resizable=0;points=[];autosize=1;strokeColor=none;fillColor=none;fontSize=16;" parent="QGqMVb0aB9mrGr7BYS81-116" vertex="1">
                    <mxGeometry x="125" y="190" width="70" height="30" as="geometry"/>
                </mxCell>
                <mxCell id="QGqMVb0aB9mrGr7BYS81-137" value="Reset Without Detached HEAD" style="swimlane;whiteSpace=wrap;html=1;fontSize=16;startSize=20;dashed=1;" parent="1" vertex="1">
                    <mxGeometry x="23" y="-250" width="287" height="220" as="geometry"/>
                </mxCell>
                <mxCell id="QGqMVb0aB9mrGr7BYS81-138" value="backup-0" style="text;html=1;align=center;verticalAlign=middle;resizable=0;points=[];autosize=1;strokeColor=none;fillColor=none;fontSize=16;" parent="QGqMVb0aB9mrGr7BYS81-137" vertex="1">
                    <mxGeometry x="125" y="130" width="90" height="30" as="geometry"/>
                </mxCell>
                <mxCell id="QGqMVb0aB9mrGr7BYS81-139" value="A" style="rounded=0;whiteSpace=wrap;html=1;" parent="QGqMVb0aB9mrGr7BYS81-137" vertex="1">
                    <mxGeometry x="30" y="75" width="40" height="40" as="geometry"/>
                </mxCell>
                <mxCell id="QGqMVb0aB9mrGr7BYS81-140" value="B" style="rounded=0;whiteSpace=wrap;html=1;" parent="QGqMVb0aB9mrGr7BYS81-137" vertex="1">
                    <mxGeometry x="90" y="75" width="40" height="40" as="geometry"/>
                </mxCell>
                <mxCell id="QGqMVb0aB9mrGr7BYS81-141" style="edgeStyle=orthogonalEdgeStyle;rounded=0;orthogonalLoop=1;jettySize=auto;html=1;strokeWidth=1;fontSize=16;endArrow=classic;endFill=1;" parent="QGqMVb0aB9mrGr7BYS81-137" source="QGqMVb0aB9mrGr7BYS81-139" target="QGqMVb0aB9mrGr7BYS81-140" edge="1">
                    <mxGeometry relative="1" as="geometry"/>
                </mxCell>
                <mxCell id="QGqMVb0aB9mrGr7BYS81-142" value="C" style="rounded=0;whiteSpace=wrap;html=1;" parent="QGqMVb0aB9mrGr7BYS81-137" vertex="1">
                    <mxGeometry x="150" y="75" width="40" height="40" as="geometry"/>
                </mxCell>
                <mxCell id="QGqMVb0aB9mrGr7BYS81-143" style="edgeStyle=orthogonalEdgeStyle;rounded=0;orthogonalLoop=1;jettySize=auto;html=1;strokeWidth=1;fontSize=16;endArrow=classic;endFill=1;" parent="QGqMVb0aB9mrGr7BYS81-137" source="QGqMVb0aB9mrGr7BYS81-140" target="QGqMVb0aB9mrGr7BYS81-142" edge="1">
                    <mxGeometry relative="1" as="geometry"/>
                </mxCell>
                <mxCell id="QGqMVb0aB9mrGr7BYS81-144" value="issue" style="text;html=1;align=center;verticalAlign=middle;resizable=0;points=[];autosize=1;strokeColor=none;fillColor=none;fontSize=16;" parent="QGqMVb0aB9mrGr7BYS81-137" vertex="1">
                    <mxGeometry x="140" y="25" width="60" height="30" as="geometry"/>
                </mxCell>
                <mxCell id="QGqMVb0aB9mrGr7BYS81-145" style="edgeStyle=orthogonalEdgeStyle;rounded=0;orthogonalLoop=1;jettySize=auto;html=1;strokeWidth=1;fontSize=16;endArrow=classic;endFill=1;dashed=1;dashPattern=1 4;" parent="QGqMVb0aB9mrGr7BYS81-137" source="QGqMVb0aB9mrGr7BYS81-144" target="QGqMVb0aB9mrGr7BYS81-142" edge="1">
                    <mxGeometry relative="1" as="geometry">
                        <Array as="points"/>
                    </mxGeometry>
                </mxCell>
                <mxCell id="QGqMVb0aB9mrGr7BYS81-147" style="edgeStyle=orthogonalEdgeStyle;rounded=0;orthogonalLoop=1;jettySize=auto;html=1;strokeWidth=1;fontSize=16;endArrow=classic;endFill=1;dashed=1;dashPattern=1 4;" parent="QGqMVb0aB9mrGr7BYS81-137" source="QGqMVb0aB9mrGr7BYS81-138" target="QGqMVb0aB9mrGr7BYS81-142" edge="1">
                    <mxGeometry relative="1" as="geometry">
                        <mxPoint x="220" y="135" as="sourcePoint"/>
                    </mxGeometry>
                </mxCell>
                <mxCell id="QGqMVb0aB9mrGr7BYS81-149" style="edgeStyle=orthogonalEdgeStyle;rounded=0;orthogonalLoop=1;jettySize=auto;html=1;fontSize=16;dashed=1;dashPattern=1 4;" parent="QGqMVb0aB9mrGr7BYS81-137" source="QGqMVb0aB9mrGr7BYS81-150" target="QGqMVb0aB9mrGr7BYS81-138" edge="1">
                    <mxGeometry relative="1" as="geometry"/>
                </mxCell>
                <mxCell id="QGqMVb0aB9mrGr7BYS81-150" value="HEAD" style="text;html=1;align=center;verticalAlign=middle;resizable=0;points=[];autosize=1;strokeColor=none;fillColor=none;fontSize=16;" parent="QGqMVb0aB9mrGr7BYS81-137" vertex="1">
                    <mxGeometry x="135" y="180" width="70" height="30" as="geometry"/>
                </mxCell>
                <mxCell id="cuskplKNgl8y7sjFwJh7-2" value="D" style="rounded=0;whiteSpace=wrap;html=1;fillColor=#008a00;fontColor=#ffffff;strokeColor=#005700;" parent="QGqMVb0aB9mrGr7BYS81-137" vertex="1">
                    <mxGeometry x="237" y="75" width="40" height="40" as="geometry"/>
                </mxCell>
                <mxCell id="iXHuMSHb4gdl7WLPt42X-12" style="edgeStyle=orthogonalEdgeStyle;rounded=0;orthogonalLoop=1;jettySize=auto;html=1;dashed=1;dashPattern=1 4;" parent="QGqMVb0aB9mrGr7BYS81-137" source="iXHuMSHb4gdl7WLPt42X-10" target="QGqMVb0aB9mrGr7BYS81-142" edge="1">
                    <mxGeometry relative="1" as="geometry">
                        <Array as="points">
                            <mxPoint x="65" y="120"/>
                            <mxPoint x="170" y="120"/>
                        </Array>
                    </mxGeometry>
                </mxCell>
                <mxCell id="iXHuMSHb4gdl7WLPt42X-10" value="backup/backup-0" style="text;html=1;align=center;verticalAlign=middle;resizable=0;points=[];autosize=1;strokeColor=none;fillColor=none;fontSize=16;spacing=0;spacingRight=-6;" parent="QGqMVb0aB9mrGr7BYS81-137" vertex="1">
                    <mxGeometry y="130" width="130" height="30" as="geometry"/>
                </mxCell>
                <mxCell id="QGqMVb0aB9mrGr7BYS81-154" value="&lt;p&gt;&lt;font style=&quot;font-size: 18px;&quot;&gt;Why Detach HEAD?&lt;/font&gt;&lt;/p&gt;&lt;p style=&quot;line-height: 130%;&quot;&gt;Commit &quot;D&quot; and branch &quot;backup-0&quot; is intact after reset,&amp;nbsp;&lt;span style=&quot;&quot;&gt;because it's detached.&lt;/span&gt;&lt;/p&gt;&lt;p style=&quot;line-height: 130%;&quot;&gt;If it wasn't, commit &quot;D&quot; will be deleted and branch &quot;&lt;span style=&quot;text-align: center; background-color: rgb(24, 20, 29);&quot;&gt;backup-0&lt;/span&gt;&lt;span style=&quot;background-color: initial;&quot;&gt;&quot; will point to commit &quot;C&quot;.&lt;/span&gt;&lt;br&gt;&lt;/p&gt;" style="text;html=1;strokeColor=none;fillColor=none;spacing=0;spacingTop=-20;whiteSpace=wrap;overflow=hidden;rounded=0;fontSize=16;" parent="1" vertex="1">
                    <mxGeometry x="320" y="-250" width="217" height="180" as="geometry"/>
                </mxCell>
            </root>
        </mxGraphModel>
    </diagram>
</mxfile>